<?xml version="1.0" encoding="UTF-8" standalone="no"?>
<svg width="16px" height="18px" viewBox="0 0 16 18" version="1.1" xmlns="http://www.w3.org/2000/svg" xmlns:xlink="http://www.w3.org/1999/xlink">
    <!-- Generator: Sketch 3.7.2 (28276) - http://www.bohemiancoding.com/sketch -->
    <title>Shape</title>
    <desc>Created with Sketch.</desc>
    <defs></defs>
    <g id="Page-1" stroke="none" stroke-width="1" fill="none" fill-rule="evenodd">
        <g id="Ed-Films-Copy" transform="translate(-98.000000, -705.000000)" fill="#FFFFFF">
            <g id="Featured">
                <g id="Group-6" transform="translate(79.000000, 690.000000)">
                    <path d="M33,15 L33,17 L31,17 L31,15 L23,15 L23,17 L21,17 L21,15 L19,15 L19,33 L21,33 L21,31 L23,31 L23,33 L31,33 L31,31 L33,31 L33,33 L35,33 L35,15 L33,15 L33,15 Z M23,29 L21,29 L21,27 L23,27 L23,29 L23,29 Z M23,25 L21,25 L21,23 L23,23 L23,25 L23,25 Z M23,21 L21,21 L21,19 L23,19 L23,21 L23,21 Z M33,29 L31,29 L31,27 L33,27 L33,29 L33,29 Z M33,25 L31,25 L31,23 L33,23 L33,25 L33,25 Z M33,21 L31,21 L31,19 L33,19 L33,21 L33,21 Z" id="Shape"></path>
                </g>
            </g>
        </g>
    </g>
</svg>